<svg width="18" height="18" viewBox="0 0 18 18" fill="none" xmlns="http://www.w3.org/2000/svg" >
<g id="victory 1" clip-path="url(#clip0_7_121)">
<g id="surface1">
<path id="Vector" d="M15.3735 10.1999C15.3737 10.1947 15.3738 10.1896 15.3738 10.1844C15.3738 9.11497 14.5037 8.24485 13.4341 8.24485H12.9047L15.2259 2.64662C15.635 1.65881 15.1642 0.522 14.1763 0.112484C13.1882 -0.296757 12.0514 0.174145 11.6421 1.16223L10.1915 4.66413L8.74105 1.16209C8.33168 0.174145 7.19486 -0.296757 6.20692 0.112484C5.21897 0.521863 4.74807 1.65854 5.15731 2.64649L6.41744 5.68888C6.25841 5.78281 6.11408 5.89872 5.98829 6.03248C5.63425 5.6562 5.13245 5.4204 4.57627 5.42026C3.50675 5.42026 2.63676 6.29038 2.63676 7.3599V11.5964C2.63676 15.108 5.49363 17.9649 9.00528 17.9649C12.5168 17.9649 15.3737 15.108 15.3737 11.5964L15.3735 10.1999ZM6.61066 1.08697C7.06124 0.900205 7.5798 1.11513 7.76657 1.56584L9.70428 6.24397C9.78599 6.44103 9.97825 6.56957 10.1915 6.56957C10.4048 6.56957 10.5971 6.44103 10.6788 6.24397L12.6165 1.56584C12.8033 1.11513 13.3218 0.900205 13.7725 1.08684C14.2232 1.27374 14.438 1.7923 14.2514 2.24287L11.7628 8.24485H9.33995L9.34009 7.3599C9.33995 6.30659 8.49565 5.44732 7.44837 5.4215L6.1318 2.24301C5.94503 1.7923 6.15995 1.27374 6.61066 1.08697ZM7.40045 8.24485C7.08184 8.24485 6.78123 8.32258 6.51577 8.45936V7.3599C6.51577 6.87197 6.91265 6.47509 7.40045 6.47509C7.88838 6.47509 8.28526 6.87211 8.2854 7.3599L8.28526 8.24485H7.40045ZM3.69145 7.3599C3.69145 6.87197 4.08834 6.47495 4.57613 6.47495C5.06406 6.47509 5.46094 6.87211 5.46108 7.3599V10.1842C5.46094 10.672 5.06406 11.0689 4.57627 11.0689C4.08847 11.0689 3.69145 10.672 3.69145 10.1842V7.3599ZM9.00528 16.9102C6.18206 16.9102 3.86627 14.6969 3.70134 11.9143C3.96433 12.0478 4.26151 12.1237 4.57627 12.1237C5.13245 12.1237 5.63439 11.8879 5.98843 11.5115C6.34246 11.8879 6.84426 12.1237 7.40058 12.1237H12.022C12.3133 12.1237 12.5493 11.8877 12.5493 11.5964C12.5493 11.3052 12.3133 11.069 12.022 11.069H7.40058C6.91279 11.069 6.51577 10.672 6.51577 10.1842C6.51591 9.69643 6.91279 9.29955 7.40058 9.29955H8.81247C8.8126 9.29955 8.8126 9.29955 8.8126 9.29955H8.81274C8.81274 9.29955 8.81274 9.29955 8.81288 9.29955H12.1124C12.1132 9.29955 12.1141 9.29968 12.115 9.29968C12.1162 9.29968 12.1173 9.29955 12.1185 9.29955H13.4341C13.9202 9.29955 14.3158 9.69313 14.3191 10.1783C14.319 10.1831 14.319 10.1881 14.319 10.193V11.5964C14.319 14.5264 11.9352 16.9102 9.00528 16.9102Z" fill="#FFBC33" />
</g>
</g>
<defs>
<clipPath id="clip0_7_121">
<rect width="18" height="18" fill="white"/>
</clipPath>
</defs>
</svg>
