<svg width="18" height="18" viewBox="0 0 18 18" fill="none" xmlns="http://www.w3.org/2000/svg">
<g clip-path="url(#clip0_7_78)">
<path d="M17.8555 7.33402C17.9355 7.33402 18.0004 7.39888 18.0004 7.47889V9C18.0004 9.56932 17.9475 10.126 17.8461 10.666C17.0615 14.8604 13.3662 18.0303 8.9369 17.9998C3.96689 17.9655 -0.0106149 13.9498 0.000388988 8.97972C0.0113226 4.01857 4.03664 0 9.00036 0C11.4322 0 13.6387 0.964758 15.2587 2.53188C15.3172 2.58845 15.3187 2.68168 15.2611 2.7392L13.1092 4.89115C13.0538 4.94656 12.9643 4.948 12.9075 4.89396C11.8907 3.92614 10.5151 3.33197 9.00036 3.33197C5.87247 3.33197 3.3537 5.83284 3.33246 8.96066C3.31112 12.109 5.857 14.668 9.00036 14.668C11.5508 14.668 13.7079 12.9832 14.4192 10.666H9.14523C9.06522 10.666 9.00036 10.6011 9.00036 10.5211V7.47886C9.00036 7.39884 9.06522 7.33398 9.14523 7.33398H17.8555V7.33402Z" fill="#2196F3"/>
<path d="M17.8551 7.33398H16.7686C16.8486 7.33398 16.9135 7.39885 16.9135 7.47886V8.99997C16.9135 9.56929 16.8606 10.126 16.7592 10.666C16.0107 14.6675 12.613 17.7365 8.45618 17.9837C8.61522 17.9931 8.77533 17.9986 8.93655 17.9997C13.3659 18.0303 17.0611 14.8604 17.8457 10.666C17.9471 10.126 18 9.56929 18 8.99997V7.47883C18 7.39885 17.9351 7.33398 17.8551 7.33398Z" fill="#1E88E5"/>
<path d="M3.85171 6.62632L1.11838 4.65138C2.65182 1.87787 5.60678 0 8.99999 0C11.4318 0 13.6383 0.964758 15.2583 2.53188C15.3168 2.58845 15.3183 2.68168 15.2608 2.7392L13.1088 4.89115C13.0535 4.94645 12.964 4.94817 12.9074 4.89424C11.8906 3.92625 10.5148 3.332 8.99999 3.332C6.71722 3.332 4.74953 4.68144 3.85171 6.62632Z" fill="#F44336"/>
<path d="M3.06265 6.05622L3.85173 6.62635C4.67123 4.85117 6.38221 3.57268 8.41038 3.36297C8.42563 3.36132 8.44029 3.35931 8.45583 3.35784C8.27735 3.34089 8.09647 3.33203 7.91351 3.33203C5.85135 3.33203 4.05416 4.41917 3.06265 6.05622Z" fill="#E53935"/>
<path d="M14.1718 2.53188C14.2303 2.58845 14.2318 2.68168 14.1742 2.73923L12.4276 4.4859C12.5949 4.61317 12.7551 4.74929 12.9071 4.894C12.9638 4.94803 13.0534 4.94659 13.1088 4.89118L15.2607 2.73923C15.3183 2.68168 15.3167 2.58848 15.2583 2.53188C13.6383 0.964758 11.4318 0 8.99997 0C8.81748 0 8.63642 0.00608203 8.45663 0.0168047C10.6729 0.148816 12.6733 1.08232 14.1718 2.53188Z" fill="#E53935"/>
<path d="M15.6021 15.1165C13.9585 16.8901 11.6087 18.0001 9 18.0001C5.47643 18.0001 2.42585 15.9753 0.948517 13.0253L3.73904 11.113C4.57643 13.1966 6.61655 14.6681 9 14.6681C10.4958 14.6681 11.8561 14.0887 12.8687 13.1419L15.6021 15.1165Z" fill="#4CAF50"/>
<path d="M3.73913 11.113L2.91626 11.6769C3.87198 13.4574 5.7514 14.6681 7.91355 14.6681C8.09639 14.6681 8.27713 14.6591 8.45555 14.6422C6.30929 14.4376 4.51193 13.036 3.73913 11.113Z" fill="#43A047"/>
<path d="M9.00006 18.0001C11.6088 18.0001 13.9586 16.89 15.6021 15.1165L14.9326 14.6328C13.3894 16.5534 11.0744 17.8275 8.45816 17.9837C8.63746 17.9944 8.81809 18.0001 9.00006 18.0001Z" fill="#43A047"/>
<path d="M3.332 8.99998C3.332 9.74677 3.4765 10.4599 3.73908 11.1129L0.948516 13.0252C0.341543 11.8141 0 10.4469 0 8.99998C0 7.42273 0.405633 5.94034 1.11839 4.65137L3.85172 6.6263C3.51816 7.3481 3.332 8.15251 3.332 8.99998Z" fill="#FFC107"/>
<path d="M2.91619 11.6768L3.73906 11.1129C3.47648 10.4599 3.33199 9.74676 3.33199 8.99997C3.33199 8.15249 3.51814 7.34808 3.8517 6.62628L3.06262 6.05615C2.55022 6.90219 2.25283 7.89497 2.24559 8.96066C2.23891 9.94342 2.48243 10.8688 2.91619 11.6768Z" fill="#FFB300"/>
</g>
<defs>
<clipPath id="clip0_7_78">
<rect width="18" height="18" fill="white"/>
</clipPath>
</defs>
</svg>
