<svg width="12" height="12" viewBox="0 0 12 12" fill="none" xmlns="http://www.w3.org/2000/svg">
<g clip-path="url(#clip0_4101_1166)">
<path d="M10.249 6.79992C10.2491 6.79644 10.2492 6.79305 10.2492 6.78957C10.2492 6.07665 9.66908 5.49657 8.95607 5.49657H8.60313L10.1506 1.76442C10.4233 1.10588 10.1095 0.348 9.45082 0.0749895C8.7921 -0.197838 8.03422 0.116097 7.76139 0.77482L6.79432 3.10942L5.82734 0.774728C5.55442 0.116097 4.79655 -0.197838 4.13791 0.0749895C3.47928 0.347909 3.16535 1.10569 3.43817 1.76432L4.27826 3.79259C4.17225 3.85521 4.07602 3.93248 3.99216 4.02165C3.75614 3.7708 3.4216 3.6136 3.05081 3.61351C2.3378 3.61351 1.75781 4.19359 1.75781 4.9066V7.73092C1.75781 10.072 3.66239 11.9766 6.00349 11.9766C8.34449 11.9766 10.2491 10.072 10.2491 7.73092L10.249 6.79992ZM4.40708 0.724649C4.70746 0.600137 5.05317 0.743417 5.17768 1.04389L6.46949 4.16264C6.52397 4.29402 6.65214 4.37972 6.79432 4.37972C6.9365 4.37972 7.06468 4.29402 7.11915 4.16264L8.41096 1.04389C8.53547 0.743417 8.88118 0.600137 9.18165 0.724557C9.48213 0.849161 9.62532 1.19486 9.5009 1.49525L7.84187 5.49657H6.2266L6.22669 4.9066C6.2266 4.20439 5.66373 3.63155 4.96555 3.61433L4.08783 1.49534C3.96332 1.19486 4.1066 0.849161 4.40708 0.724649ZM4.9336 5.49657C4.7212 5.49657 4.52079 5.54839 4.34382 5.63958V4.9066C4.34382 4.58132 4.6084 4.31673 4.9336 4.31673C5.25889 4.31673 5.52348 4.58141 5.52357 4.9066L5.52348 5.49657H4.9336ZM2.46094 4.9066C2.46094 4.58132 2.72553 4.31664 3.05072 4.31664C3.37601 4.31673 3.6406 4.58141 3.64069 4.9066V6.78948C3.6406 7.11468 3.37601 7.37926 3.05081 7.37926C2.72562 7.37926 2.46094 7.11468 2.46094 6.78948V4.9066ZM6.00349 11.2735C4.12134 11.2735 2.57749 9.79791 2.46753 7.94286C2.64285 8.03185 2.84097 8.08248 3.05081 8.08248C3.4216 8.08248 3.75623 7.92529 3.99225 7.67434C4.22828 7.92529 4.56281 8.08248 4.93369 8.08248H8.01463C8.20881 8.08248 8.36619 7.9251 8.36619 7.73092C8.36619 7.53683 8.20881 7.37936 8.01463 7.37936H4.93369C4.6085 7.37936 4.34382 7.11468 4.34382 6.78948C4.34391 6.46428 4.6085 6.1997 4.93369 6.1997H5.87495C5.87504 6.1997 5.87504 6.1997 5.87504 6.1997H5.87513C5.87513 6.1997 5.87513 6.1997 5.87522 6.1997H8.07487C8.07542 6.1997 8.07606 6.19979 8.07661 6.19979C8.07744 6.19979 8.07817 6.1997 8.07899 6.1997H8.95607C9.28007 6.1997 9.54384 6.46209 9.54604 6.78554C9.54594 6.78875 9.54594 6.79204 9.54594 6.79534V7.73092C9.54594 9.68429 7.95677 11.2735 6.00349 11.2735Z" fill="#FFBC33"/>
</g>
<defs>
<clipPath id="clip0_4101_1166">
<rect width="12" height="12" fill="white"/>
</clipPath>
</defs>
</svg>
