<svg width="4" height="13" viewBox="0 0 4 13" fill="none" xmlns="http://www.w3.org/2000/svg">
<path d="M1.328 8.112L0.832 0.799999H3.808L3.312 8.112H1.328ZM2.32 12.128C1.872 12.128 1.504 11.984 1.216 11.696C0.928 11.408 0.784 11.0667 0.784 10.672C0.784 10.2667 0.928 9.93067 1.216 9.664C1.504 9.38667 1.872 9.248 2.32 9.248C2.77867 9.248 3.14667 9.38667 3.424 9.664C3.712 9.93067 3.856 10.2667 3.856 10.672C3.856 11.0667 3.712 11.408 3.424 11.696C3.14667 11.984 2.77867 12.128 2.32 12.128Z" fill="white"/>
</svg>
